<svg width="2010" height="1802" viewBox="0 0 2010 1802" fill="none" xmlns="http://www.w3.org/2000/svg">
<rect width="2010" height="1802" fill="#009254"/>
<path d="M791 773.999V1038.44C791 1078.93 791 1099.18 801.42 1113.31C804.592 1117.61 808.392 1121.41 812.693 1124.58C826.821 1135 847.068 1135 887.562 1135H924.77C930.323 1135 933.099 1135 935.44 1134.79C961.213 1132.52 981.644 1112.09 983.918 1086.32C984.124 1083.97 984.124 1081.2 984.124 1075.65V1053.5C984.124 1032.95 967.466 1016.29 946.917 1016.29C926.368 1016.29 909.71 999.632 909.71 979.083V878.977C909.71 840.176 909.71 820.775 919.318 807.01C922.912 801.862 927.385 797.389 932.533 793.795C946.298 784.187 965.699 784.187 1004.5 784.187H1064.74C1083.82 784.187 1099.29 799.655 1099.29 818.737C1099.29 837.818 1114.76 853.286 1133.84 853.286H1158.65C1164.2 853.286 1166.97 853.286 1169.32 853.08C1195.09 850.806 1215.52 830.375 1217.79 804.602C1218 802.261 1218 799.485 1218 793.932V760.268C1218 723.155 1218 704.599 1209.17 691.224C1205.2 685.203 1200.05 680.05 1194.02 676.076C1180.65 667.249 1162.09 667.249 1124.98 667.249H897.75C847.428 667.249 822.266 667.249 806.633 682.882C791 698.515 791 723.677 791 773.999Z" fill="white"/>
<path d="M966.492 878.091V899.353C966.492 923.968 966.492 936.275 972.57 945.017C974.875 948.332 977.753 951.21 981.068 953.515C989.81 959.593 1002.12 959.593 1026.73 959.593H1062.17C1078.8 959.593 1092.29 973.079 1092.29 989.714C1092.29 1006.35 1078.8 1019.83 1062.17 1019.83H1055.08C1052.07 1019.83 1050.57 1019.83 1049.3 1019.93C1032.54 1021.19 1019.23 1034.5 1017.97 1051.26C1017.87 1052.53 1017.87 1054.03 1017.87 1057.04V1077.42C1017.87 1099.5 1017.87 1110.55 1022.81 1118.67C1025.64 1123.33 1029.55 1127.23 1034.2 1130.06C1042.33 1135 1053.37 1135 1075.46 1135H1148.38C1180.41 1135 1196.42 1135 1206.37 1125.05C1216.31 1115.1 1216.31 1099.09 1216.31 1067.07V972.6C1216.31 940.577 1216.31 924.565 1206.37 914.616C1196.42 904.668 1180.41 904.668 1148.38 904.668H1077.23C1059.13 904.668 1044.45 889.993 1044.45 871.89C1044.45 853.787 1029.78 839.112 1011.67 839.112H1005.47C1000.82 839.112 998.487 839.112 996.529 839.34C980.883 841.162 968.542 853.503 966.72 869.149C966.492 871.107 966.492 873.435 966.492 878.091Z" fill="#2B453C"/>
</svg>
