<svg width="768" height="794" viewBox="0 0 768 794" fill="none" xmlns="http://www.w3.org/2000/svg">
<rect width="767.473" height="794" fill="#2B453C"/>
<path d="M203.719 322.07C203.719 319.322 204.494 316.63 205.956 314.303C213.751 301.893 232.926 307.415 232.926 322.07V410.252C232.926 424.31 215.011 430.25 206.612 418.977C204.733 416.456 203.719 413.396 203.719 410.252V322.07Z" fill="#6E997E"/>
<path d="M164 350.552C164 345.627 166.482 341.034 170.601 338.336C180.314 331.974 193.207 338.941 193.207 350.552V387.698C193.207 398.871 181.171 405.906 171.436 400.421C166.842 397.834 164 392.97 164 387.698V350.552Z" fill="#6E997E"/>
<path d="M243.805 266.742C243.805 260.922 247.261 255.657 252.601 253.343C262.244 249.163 273.012 256.232 273.012 266.742V434.678C273.012 440.925 269.039 446.48 263.128 448.498C253.652 451.734 243.805 444.691 243.805 434.678V266.742Z" fill="#6E997E"/>
<path d="M283.453 254.936C283.453 248.299 287.928 242.497 294.346 240.811C303.605 238.379 312.661 245.363 312.661 254.936V437.855C312.661 446.6 305.027 453.384 296.342 452.358C288.991 451.489 283.453 445.257 283.453 437.855V254.936Z" fill="#6E997E"/>
<path d="M323.227 269.843C323.227 258.094 336.395 251.155 346.086 257.797C350.059 260.52 352.434 265.027 352.434 269.843V445.547C352.434 455.05 343.501 462.022 334.283 459.713C327.784 458.086 323.227 452.246 323.227 445.547V269.843Z" fill="#6E997E"/>
<path d="M362.875 289.849C362.875 280.295 371.746 273.215 381.062 275.334C387.838 276.875 392.646 282.899 392.646 289.849V566.249C392.646 580.608 374.323 586.644 365.789 575.096C363.896 572.534 362.875 569.434 362.875 566.249V289.849Z" fill="#6E997E"/>
<path d="M403.312 288.148C403.312 279.276 411.281 272.528 420.031 273.99C426.95 275.145 432.02 281.133 432.02 288.148V615.995C432.02 621.68 428.665 626.83 423.463 629.126C413.975 633.314 403.312 626.366 403.312 615.994V288.148Z" fill="#6E997E"/>
<path d="M443.062 329.126C443.062 315.068 460.977 309.128 469.377 320.4C471.255 322.922 472.27 325.982 472.27 329.126V560.047C472.27 562.166 471.809 564.26 470.918 566.182C464.344 580.384 443.062 575.696 443.062 560.047V329.126Z" fill="#6E997E"/>
<path d="M482.711 396.467C482.711 383.266 498.835 376.84 507.915 386.422C510.486 389.135 511.918 392.73 511.918 396.467V500.775C511.918 503.384 511.219 505.946 509.894 508.194C502.34 521.002 482.711 515.644 482.711 500.775V396.467Z" fill="#6E997E"/>
<path d="M522.43 419.471C522.43 408.252 534.555 401.223 544.291 406.798C548.834 409.4 551.637 414.235 551.637 419.471V451.224C551.637 455.017 550.161 458.662 547.521 461.386C538.39 470.81 522.43 464.346 522.43 451.224V419.471Z" fill="#6E997E"/>
</svg>
