<svg width="2010" height="1802" viewBox="0 0 2010 1802" fill="none" xmlns="http://www.w3.org/2000/svg">
<rect width="2010" height="1802" fill="#3B82F6"/>
<path d="M1266.46 586.065L1112.54 752.988C1107.99 757.923 1100.25 758.099 1095.48 753.375L1011.76 670.465L792.746 903.901L979.737 1098.68H1346.78C1357.06 1098.68 1362.47 1110.86 1355.58 1118.49L1182.6 1310H836.289C833.242 1310 830.312 1308.83 828.107 1306.72L610 1098.68V713.542L831.542 492H1179.19L1265.64 569.185C1270.58 573.595 1270.95 581.197 1266.46 586.065Z" fill="#0B2E65"/>
<path d="M1182.6 1310L1355.58 1118.49C1362.47 1110.86 1357.06 1098.68 1346.78 1098.68H610L828.106 1306.72C830.312 1308.83 833.242 1310 836.289 1310H1182.6M1179.19 492L610 1098.68M610 713.542L1182.6 1310" stroke="#3B82F6" stroke-width="4.92772"/>
<path d="M1383.86 752.357L971.937 949.802C964.832 953.207 962.964 962.466 968.193 968.36L992.589 995.856C994.838 998.392 998.066 999.844 1001.46 999.844H1388.99C1395.53 999.844 1400.84 994.536 1400.84 987.989V763.048C1400.84 754.321 1391.73 748.585 1383.86 752.357Z" fill="white" stroke="#0D0B08" stroke-width="4.92772"/>
</svg>
