<svg viewBox="639 492 762 818" fill="none" xmlns="http://www.w3.org/2000/svg">
<path d="M1245.82 609.953L1103.54 764.255C1099.33 768.817 1092.18 768.979 1087.77 764.613L1010.38 687.971L807.928 903.758L980.782 1083.81H1320.08C1329.57 1083.81 1334.57 1095.07 1328.21 1102.12L1168.31 1279.15H848.179C845.362 1279.15 842.654 1278.07 840.615 1276.12L639 1083.81V727.791L843.791 523H1165.16L1245.07 594.349C1249.63 598.426 1249.97 605.453 1245.82 609.953Z" fill="#0B2E65"/>
<path d="M1168.31 1279.15L1328.21 1102.12C1334.57 1095.07 1329.57 1083.81 1320.08 1083.81H639L840.615 1276.12C842.654 1278.07 845.362 1279.15 848.179 1279.15H1168.31M1165.16 523L639 1083.81M639 727.791L1168.31 1279.15" stroke="#0B2E65" stroke-width="4.55513"/>
<path d="M1354.31 763.66L973.529 946.175C966.962 949.323 965.235 957.883 970.068 963.33L992.619 988.748C994.699 991.092 997.683 992.434 1000.82 992.434H1359.05C1365.1 992.434 1370 987.528 1370 981.475V773.542C1370 765.475 1361.58 760.173 1354.31 763.66Z" fill="#3B82F6" stroke="#0B2E65" stroke-width="4.55513"/>
</svg>
