<svg viewBox="133 141 522 494" fill="none" xmlns="http://www.w3.org/2000/svg">
<path d="M145.809 633.165H296.021C301.805 633.165 306.494 628.476 306.494 622.691V433.786C306.494 424.567 295.443 419.846 288.781 426.218L138.568 569.912C136.503 571.888 135.335 574.622 135.335 577.48V622.691C135.335 628.476 140.024 633.165 145.809 633.165Z" fill="#7B3B1E" stroke="#7B3B1E" stroke-width="4.6703"/>
<path d="M133 512.88C133 524.009 146.216 529.844 154.439 522.345L307.692 382.602C316.336 374.72 310.759 360.328 299.061 360.328H145.809C138.735 360.328 133 366.063 133 373.137V512.88Z" fill="#C0A091"/>
<path d="M145.809 335.681H335.79C345.289 335.681 349.882 324.052 342.948 317.561L179.929 164.954C177.988 163.137 175.429 162.126 172.771 162.126H145.809C140.024 162.126 135.335 166.815 135.335 172.6V325.207C135.335 330.991 140.024 335.681 145.809 335.681Z" fill="#7B3B1E" stroke="#7B3B1E" stroke-width="4.6703"/>
<path d="M331.625 621.553C331.625 628.627 337.36 634.361 344.434 634.361H498.824C510.372 634.361 516.023 620.28 507.678 612.297L353.288 464.607C345.14 456.813 331.625 462.587 331.625 473.862V621.553Z" fill="#C0A091"/>
<path d="M392.743 330.736C399.465 336.986 410.404 332.181 410.349 323.003L409.44 172.671C409.406 166.911 404.727 162.261 398.967 162.261H238.182C228.666 162.261 224.081 173.926 231.05 180.405L392.743 330.736Z" fill="#7B3B1E" stroke="#7B3B1E" stroke-width="4.6703"/>
<path d="M550.25 618.603L402.471 480.957C393.959 473.029 399.569 458.775 411.201 458.775H613.262C618.249 458.775 622.834 461.654 624.675 466.289C653.452 538.717 609.72 602.318 562.598 621.184C558.358 622.882 553.593 621.716 550.25 618.603Z" fill="#7B3B1E" stroke="#7B3B1E" stroke-width="4.6703"/>
<path d="M582.189 436.648H453.505C441.957 436.648 436.306 422.567 444.651 414.584L609.874 256.531C617.134 249.586 629.141 253.36 630.365 263.331C636.449 312.92 624.502 351.966 579.143 383.729C570.493 389.787 570.959 403.513 579.705 409.432C583.656 412.107 587.299 414.953 590.744 418.095C598.394 425.068 592.54 436.648 582.189 436.648Z" fill="#7B3B1E" stroke="#7B3B1E" stroke-width="4.6703"/>
<path d="M435.289 171.258V361.467C435.289 372.742 448.805 378.516 456.952 370.722L607.408 226.796C611.644 222.743 612.646 216.277 609.359 211.421C579.462 167.248 527.873 155.055 447.36 158.567C440.591 158.862 435.289 164.482 435.289 171.258Z" fill="#C0A091"/>
</svg>
