<svg width="768" height="794" viewBox="0 0 768 794" fill="none" xmlns="http://www.w3.org/2000/svg">
<rect width="767.473" height="794" fill="#7B3C1E"/>
<path d="M148.776 633.463H305.667C311.708 633.463 316.606 628.566 316.606 622.524V425.221C316.606 415.592 305.064 410.66 298.105 417.316L141.215 567.398C139.058 569.462 137.838 572.317 137.838 575.303V622.524C137.838 628.566 142.735 633.463 148.776 633.463Z" fill="white" stroke="white" stroke-width="4.87793"/>
<path d="M135.398 507.831C135.398 519.455 149.202 525.548 157.791 517.716L317.856 371.76C326.885 363.527 321.061 348.496 308.842 348.496H148.777C141.388 348.496 135.398 354.486 135.398 361.874V507.831Z" fill="#C0A091"/>
<path d="M148.776 322.754H347.204C357.125 322.754 361.923 310.609 354.681 303.829L184.413 144.438C182.386 142.54 179.714 141.484 176.938 141.484H148.776C142.735 141.485 137.838 146.382 137.838 152.424V311.815C137.838 317.857 142.735 322.754 148.776 322.754Z" fill="white" stroke="white" stroke-width="4.87793"/>
<path d="M342.867 621.333C342.867 628.721 348.857 634.711 356.245 634.711H517.499C529.561 634.711 535.463 620.004 526.747 611.665L365.493 457.409C356.984 449.269 342.867 455.3 342.867 467.076V621.333Z" fill="#C0A091"/>
<path d="M406.689 317.588C413.71 324.115 425.135 319.096 425.077 309.51L424.128 152.494C424.091 146.479 419.205 141.621 413.189 141.621H245.256C235.317 141.621 230.528 153.805 237.807 160.572L406.689 317.588Z" fill="white" stroke="white" stroke-width="4.87793"/>
<path d="M571.199 618.247L416.85 474.481C407.96 466.2 413.819 451.313 425.968 451.313H637.012C642.222 451.313 647.01 454.32 648.933 459.161C678.989 534.809 633.313 601.237 584.096 620.943C579.667 622.716 574.69 621.498 571.199 618.247Z" fill="white" stroke="white" stroke-width="4.87793"/>
<path d="M604.571 428.205H470.167C458.104 428.205 452.203 413.498 460.919 405.16L633.487 240.08C641.07 232.826 653.611 236.767 654.889 247.183C661.244 298.975 648.766 339.758 601.39 372.933C592.355 379.26 592.842 393.596 601.977 399.779C606.104 402.572 609.908 405.545 613.507 408.826C621.496 416.11 615.382 428.205 604.571 428.205Z" fill="white" stroke="white" stroke-width="4.87793"/>
<path d="M451.133 151.013V349.679C451.133 361.455 465.249 367.486 473.759 359.346L630.904 209.02C635.329 204.787 636.374 198.034 632.942 192.962C601.716 146.826 547.832 134.09 463.74 137.759C456.67 138.067 451.133 143.937 451.133 151.013Z" fill="#C0A091"/>
</svg>
